<svg xmlns="http://www.w3.org/2000/svg" viewBox="0 0 32 32" width="32" height="32">
  <!-- Generic boss icon: a purple skull, matching the app's dungeon colour -->
  <path fill="#a21caf" stroke="#4a044e" stroke-width="1"
        d="M16 3C9.9 3 5 7.6 5 13.3c0 3.4 1.7 6.4 4.4 8.3v3.9c0 .8.6 1.5 1.4 1.5h1.3v-2.6c0-.4.3-.7.7-.7s.7.3.7.7V27h1.6v-2.6c0-.4.3-.7.7-.7s.7.3.7.7V27h1.6v-2.6c0-.4.3-.7.7-.7s.7.3.7.7V27h1.3c.8 0 1.4-.7 1.4-1.5v-3.9c2.7-1.9 4.4-4.9 4.4-8.3C27 7.6 22.1 3 16 3z"/>
  <circle cx="11.5" cy="14" r="3" fill="#1f2937"/>
  <circle cx="20.5" cy="14" r="3" fill="#1f2937"/>
  <path fill="#1f2937" d="M14.5 19h3l-1.5 3z"/>
</svg>
